<svg xmlns="http://www.w3.org/2000/svg" width="261" height="55"><g fill="none" fill-rule="evenodd"><path fill="#fffffe" d="M11.116 53.521c-5.314 0-9.638-4.323-9.638-9.636V10.347c0-5.315 4.324-9.638 9.638-9.638h239.192c5.314 0 9.638 4.323 9.638 9.638v33.538c0 5.313-4.324 9.636-9.638 9.636z"/><path fill="#191a19" d="M250.309.209H11.116C5.526.209.979 4.757.979 10.347v33.538c0 5.589 4.547 10.137 10.137 10.137h239.193c5.59 0 10.137-4.548 10.137-10.137V10.347c0-5.59-4.547-10.138-10.137-10.138zm0 1a9.138 9.138 0 0 1 9.137 9.138v33.538a9.137 9.137 0 0 1-9.137 9.137H11.116a9.136 9.136 0 0 1-9.137-9.137V10.347a9.137 9.137 0 0 1 9.137-9.138z"/><path fill="#c72e2b" d="M173.705 40.09h70.2v-1.77h-70.2zm-152.33.007h138.918v-1.785H21.375zM147.149 16.48c-.141 1.366-.496 2.174-1.25 2.838l-.082.193.189.682.16.056c2.994-.793 4.643-2.675 4.643-5.302 0-1.992-1.115-3.116-2.756-3.116-1.32 0-2.354 1.045-2.354 2.377 0 1.016.526 1.834 1.45 2.272zm103.652 21.135a2.034 2.034 0 0 0-2.043-2.023c-1.125 0-2.041.906-2.041 2.023s.916 2.025 2.041 2.025a2.036 2.036 0 0 0 2.043-2.025zm.496 0a2.525 2.525 0 0 1-2.539 2.516 2.524 2.524 0 0 1-2.535-2.516 2.525 2.525 0 0 1 2.535-2.516 2.526 2.526 0 0 1 2.539 2.516zm-2.078-.545c0-.234-.184-.357-.563-.357h-.494v.727h.596c.287 0 .461-.157.461-.37zm.367 1.256.371.633h-.677l-.223-.432c-.27-.523-.434-.664-.752-.664h-.143v1.096h-.549v-2.668h1.274c.644 0 .908.341.908.752 0 .397-.279.685-.724.74v.014c.222.073.33.221.515.529zM169.94 28.014c3.797 0 3.789 0 5.646.039l.27-.231c.039-1.972.078-2.397.228-4.289l-.228-.196c-2.358.076-3.598.117-5.916.117-.039-2.862 0-3.597.035-6.882h1.295c4.103.041 4.445.041 6.535.117l.264-.233c.039-1.583.076-2.203.23-4.33l-.23-.23c-1.897.039-2.202.076-5.127.154h-8.399l-.226.193c.187 5.799.265 8.081.265 15.5 0 5.104-.039 9.735-.078 12.247l.192.232c2.662-.114 2.617-.154 5.244-.114l.226-.233c0-.889-.113-5.598-.15-6.369-.041-2.012-.076-3.635-.076-5.492zm-152.295 0c3.801 0 3.789 0 5.653.039l.265-.231c.038-1.972.076-2.397.228-4.289l-.228-.196c-2.358.076-3.6.117-5.918.117-.039-2.862 0-3.597.038-6.882h1.292c4.105.041 4.447.041 6.537.117l.267-.233c.035-1.583.075-2.203.227-4.33l-.227-.23c-1.902.039-2.205.076-5.131.154H12.25l-.228.193c.191 5.799.265 8.081.265 15.5 0 5.104-.037 9.735-.074 12.247l.189.232c2.661-.114 2.619-.154 5.243-.114l.228-.233c0-.889-.114-5.598-.152-6.369-.038-2.012-.076-3.635-.076-5.492zm224.918-1.327c0-.708-.051-1.389-.18-2.099-.363-2.044-1.34-2.596-2.734-2.596-.334 0-.493 0-.799.025 0 3.57 0 7.137.076 10.703 1.238.051 2.219-.026 2.889-1.312.748-1.389.748-4.352.748-4.721zm3.74 7.268c-1.859 2.517-4.516 2.674-6.654 2.699-.825.028-4.924.051-5.856.078l-.127-.156c.028-1.967.051-3.643.051-6.189 0-4.04 0-8.081-.105-12.093l.134-.156h5.465c2.01 0 3.61.052 4.926.63 3.428 1.466 3.867 5.532 3.867 8.339 0 1.732-.18 4.724-1.701 6.848zm-30.58-2.074c0 2.074-.027 3.357-.051 4.695l.154.156c1.957-.078 2.114-.078 4.077-.078l.179-.158c-.129-2.885-.158-3.043-.234-6.164l-.152-3.83 2.914 4.83a153.971 153.971 0 0 1 3.041 5.244l.179.156c1.963-.078 2.323-.078 4.231-.078l.154-.158c-.025-1.467-.078-3.33-.078-6.791 0-1.809.053-9.864.053-11.489l-.155-.158c-1.314.026-2.06.051-3.921.08l-.153.156c.053.76.129 4.143.153 4.826l.107 4.432-2.479-3.906c-2.037-3.309-2.398-3.909-3.199-5.456l-.201-.132c-2.041.08-2.633.08-4.646.08l-.153.156c.051 1.625.104 3.251.129 4.88 0 1.626.051 6.712.051 8.707zm-13.156 4.695.129.156c1.625-.078 2.011-.078 4.668-.078h5.722l.156-.156c.051-1.601.079-2.102.207-3.778l-.156-.156c-1.547.13-4.252.156-5.513.156v-3.776c1.337 0 3.478 0 4.562.026l.152-.158c.078-1.444.078-1.994.178-3.435l-.152-.16c-1.133.054-3.272.107-4.74.107a65.545 65.545 0 0 1 0-3.436c1.595-.027 1.75-.027 2.033-.027.465 0 2.529.027 2.941.027l.152-.158c.055-1.337.055-1.836.18-3.516l-.125-.156c-1.291.026-1.783.026-6.01.051-2.863.029-3.173.029-4.306.029l-.156.156c.183 3.121.183 6.637.183 9.94 0 4.198-.055 6.375-.105 8.342zm-8.864.027.127.129c2.192-.078 2.785-.103 5.26-.078l.129-.131c-.129-3.592-.152-7.16-.152-10.752 0-3.933.078-6.137.129-7.555l-.157-.158c-2.396.105-2.941.105-5.234.08l-.152.156c.074 1.862.127 3.727.127 6.977 0 3.778-.026 7.555-.077 11.332zm-44.896-13.194c0 3.018 1.678 4.251 2.889 5.141l1.054.734c1.01.735 1.731 1.261 1.731 2.204 0 .393-.207 1.807-2.063 1.807-1.781 0-2.812-.863-3.172-1.178l-.181.077c-.028.577-.028 1.156-.053 1.734a43.96 43.96 0 0 1-.129 2.044l.154.238c1.11.552 2.528.811 3.948.811 1.853 0 3.816-.339 5.261-1.966.825-.947 1.444-2.361 1.444-4.145 0-2.912-1.524-3.959-3.895-5.639-1.24-.838-1.908-1.441-1.908-2.334 0-.916.799-1.494 1.807-1.494 1.443 0 2.242.656 2.914 1.205l.203-.076.078-1.813c.027-.654.078-1.311.131-1.967l-.104-.181c-.49-.238-1.779-.87-4.051-.87-1.959 0-3.48.475-4.537 1.523-.877.892-1.521 2.281-1.521 4.145zm-18.722 8.472c0 2.074-.026 3.357-.051 4.695l.152.156c1.959-.078 2.115-.078 4.076-.078l.18-.158c-.131-2.885-.155-3.043-.233-6.164l-.154-3.83 2.914 4.83a153.944 153.944 0 0 1 3.043 5.244l.18.156c1.959-.078 2.322-.078 4.228-.078l.154-.158c-.023-1.467-.076-3.33-.076-6.791 0-1.809.053-9.864.053-11.489l-.154-.158c-1.317.026-2.065.051-3.922.08l-.154.156c.052.76.128 4.143.154 4.826l.105 4.432-2.476-3.906c-2.035-3.309-2.401-3.909-3.198-5.456l-.207-.132c-2.037.08-2.63.08-4.64.08l-.156.156c.051 1.625.102 3.251.131 4.88 0 1.626.051 6.712.051 8.707zm-11.077-3.463c1.035.025 2.04 0 3.047-.025l-.632-2.939c-.401-1.941-.489-2.416-.719-3.857-.287 1.393-.372 1.812-.947 4.066zm-6.292 8.287-.127-.129c.513-1.679.617-2.072 1.418-5.115l1.183-4.381c.389-1.338.75-2.647 1.111-3.985.183-.684 1.083-4.068 1.29-4.852l.155-.134c3.146 0 3.636 0 6.215-.077l.153.158c.08.34.154.682.258 1.02 1.135 4.512 1.215 4.83 1.935 7.633l1.161 4.618c.257 1.021.645 2.676.902 3.699.052.184.283 1.076.334 1.283l-.127.16c-2.166.026-2.401.051-4.824.102l-.156-.129c-.28-1.758-.488-2.809-.824-4.484h-4.384a69.158 69.158 0 0 0-.927 4.404l-.154.158c-2.01 0-2.71 0-4.592.051zm-16.422-.051.131-.156c0-2.125 0-2.731.075-8.237l.102-4.693 1.653 7.527c.181.815.361 1.625.541 2.465.414 1.784.464 1.991.672 3.016l.154.156c1.549-.078 1.96-.103 3.612-.078l.177-.156c.44-2.23.879-4.461 1.137-5.692l1.625-7.504v5.327c.103 3.408.103 3.83.158 7.947l.125.156c2.219-.078 2.629-.103 4.926-.078l.154-.156c-.154-2.518-.258-3.883-.49-9.13l-.18-3.986c-.105-2.86-.128-3.567-.182-5.168l-.154-.156c-2.759.051-3.582.08-6.498.08l-.153.156c-.079.366-.362 2.02-.441 2.36l-.388 1.809-1.106 5.615-1.265-5.534c-.67-3.015-.746-3.357-.928-4.33l-.182-.156c-3.121.08-3.839.08-6.601.08l-.155.156c-.025 1.024-.025 1.207-.075 2.834a36.01 36.01 0 0 0-.052 1.705l-.206 5.768c-.104 2.205-.288 5.747-.387 7.975l.153.156c1.497-.053 2.09-.078 4.048-.078zm87.302-10.118c.762.053 1.189-.056 1.322-.084 1.52-.416 1.686-1.716 1.686-2.52 0-.335-.033-.917-.33-1.415-.231-.414-.629-.777-1.584-.777-.303 0-.729 0-.994.056 0 1.303-.067 3.437-.1 4.74zm-4.977 1.016c0-1.678-.025-6.506-.181-9.258l.107-.156c.901 0 5.258-.054 6.264-.054 1.496 0 3.017.079 4.074.656 2.064 1.101 2.215 3.75 2.215 4.906 0 3.197-1.57 4.326-2.344 4.879l1.031 2.623c.491 1.205 1.239 3.12 2.272 5.192l-.106.183c-2.4.08-2.99.106-5.285.239l-.181-.159c-.102-.289-.205-.58-.286-.89-.41-1.34-.822-2.705-1.236-4.041l-.592-1.646a7.537 7.537 0 0 1-.752.025c0 3.228 0 4.086.159 6.445l-.129.158c-2.346 0-2.604 0-5.002.078l-.155-.156c.024-1.287.127-7.606.127-9.024zm-96.216-1.016c.76.053 1.191-.056 1.322-.084 1.52-.416 1.685-1.716 1.685-2.52 0-.335-.034-.917-.331-1.415-.231-.414-.629-.777-1.586-.777-.297 0-.726 0-.99.056 0 1.303-.067 3.437-.1 4.74zm-4.974 1.016c0-1.678-.028-6.506-.184-9.258l.103-.156c.903 0 5.261-.054 6.269-.054 1.496 0 3.015.079 4.073.656 2.065 1.101 2.217 3.75 2.217 4.906 0 3.197-1.572 4.326-2.346 4.879l1.032 2.623c.49 1.205 1.238 3.12 2.27 5.192l-.104.183c-2.399.08-2.991.106-5.286.239l-.183-.159a9.947 9.947 0 0 1-.282-.89c-.412-1.34-.824-2.705-1.236-4.041l-.596-1.646c-.282.025-.464.025-.746.025 0 3.228 0 4.086.153 6.445l-.127.158c-2.347 0-2.605 0-5.005.078l-.151-.156c.023-1.287.129-7.606.129-9.024zM64.08 36.576l.131.156c1.624-.078 2.01-.078 4.667-.078h5.724l.155-.156c.051-1.601.078-2.102.207-3.778l-.156-.156c-1.548.13-4.254.156-5.518.156v-3.776c1.34 0 3.481 0 4.565.026l.154-.158c.077-1.444.077-1.994.179-3.435l-.155-.16c-1.135.054-3.273.107-4.743.107a72.826 72.826 0 0 1 0-3.436c1.598-.027 1.754-.027 2.037-.027.464 0 2.528.027 2.94.027l.154-.158c.054-1.337.054-1.836.181-3.516l-.127-.156c-1.289.026-1.782.026-6.009.051-2.865.029-3.174.029-4.308.029l-.156.156c.182 3.121.182 6.637.182 9.94 0 4.198-.051 6.375-.104 8.342zm-17.447-.971c0 .34-.025.657-.025.971l.154.156c2.242-.078 2.707-.078 5.13-.078l.129-.158c-.05-2.541-.05-5.111-.05-7.657 1.236-.078 1.675-.078 3.351-.054 0 .447.028 2.363.028 2.756 0 1.363-.028 2.701-.053 4.039-.026.34-.026.682-.026.996l.155.156c2.115-.078 2.735-.078 5.107-.078l.155-.158c-.081-2.673-.081-5.401-.081-8.103 0-3.016 0-6.555.081-10.177l-.13-.158c-2.087.051-2.708.08-5.184.08l-.126.156c0 1.024.102 5.612.102 6.532-.412.025-2.554.078-3.354.025v-1.26c0-.838.025-4.617.025-5.375l-.154-.158c-2.219.105-2.914.132-5.158.08l-.129.156c.078 2.78.129 5.563.129 8.342 0 3.147-.051 6.398-.076 8.969zM36.571 28.55l1.054.734c1.01.735 1.729 1.261 1.729 2.204 0 .393-.206 1.807-2.063 1.807-1.78 0-2.811-.863-3.172-1.178l-.181.077c-.025.577-.025 1.156-.05 1.734-.026.681-.079 1.361-.13 2.044l.155.238c1.11.552 2.528.811 3.945.811 1.857 0 3.817-.339 5.261-1.966.827-.947 1.444-2.361 1.444-4.145 0-2.912-1.521-3.959-3.893-5.639-1.239-.838-1.908-1.441-1.908-2.334 0-.916.798-1.494 1.805-1.494 1.443 0 2.243.656 2.913 1.205l.208-.076.075-1.813c.026-.654.079-1.311.129-1.967l-.103-.181c-.488-.238-1.779-.87-4.047-.87-1.961 0-3.482.475-4.539 1.523-.878.892-1.522 2.281-1.522 4.145 0 3.018 1.677 4.251 2.89 5.141zm-10.6-10.412c2.295.025 2.835.025 5.234-.08l.155.158c-.054 1.418-.129 3.622-.129 7.555 0 3.592.027 7.16.156 10.752l-.129.131c-2.477-.025-3.069 0-5.262.078l-.129-.129c.051-3.777.077-7.554.077-11.332 0-3.25-.052-5.115-.13-6.977z"/></g></svg>