<?xml version="1.0" encoding="UTF-8" standalone="no"?>
<!DOCTYPE svg PUBLIC "-//W3C//DTD SVG 1.1//EN" "http://www.w3.org/Graphics/SVG/1.1/DTD/svg11.dtd">
<svg width="100%" height="100%" viewBox="0 0 1440 900" version="1.1" xmlns="http://www.w3.org/2000/svg" xmlns:xlink="http://www.w3.org/1999/xlink" xml:space="preserve" xmlns:serif="http://www.serif.com/" style="fill-rule:evenodd;clip-rule:evenodd;stroke-linejoin:round;stroke-miterlimit:2;">
    <g transform="matrix(1,0,0,1,190,-153)">
        <text x="129.621px" y="292px" style="font-family:'GoodPro-CompUltra', 'Good Pro', sans-serif;font-weight:950;font-stretch:ultra-condensed;font-size:124.248px;stroke:black;stroke-width:1px;">J<tspan x="152.359px 186.03px 221.068px 256.23px " y="292px 292px 292px 292px ">ETZT</tspan></text>
        <text x="302.575px" y="292px" style="font-family:'GoodPro-CompUltra', 'Good Pro', sans-serif;font-weight:950;font-stretch:ultra-condensed;font-size:124.248px;"><tspan x="302.575px 345.44px 387.312px 425.083px 467.328px 479.255px 536.161px 569.832px 612.698px " y="292px 292px 292px 292px 292px 292px 292px 292px 292px ">NOCH MEHR</tspan></text>
        <text x="665.006px" y="292px" style="font-family:'GoodPro-CompUltra', 'Good Pro', sans-serif;font-weight:950;font-stretch:ultra-condensed;font-size:124.248px;fill:white;stroke:black;stroke-width:1px;">F<tspan x="698.802px 739.804px 762.79px 799.319px 837.09px 879.956px 913.627px 955.374px 978.36px 1016.13px " y="292px 292px 292px 292px 292px 292px 292px 292px 292px 292px ">RISCHEKICK</tspan></text>
    </g>
    <g transform="matrix(1,0,0,1,-126,-7)">
        <text x="528.307px" y="219px" style="font-family:'GoodPro-CompUltra', 'Good Pro', sans-serif;font-weight:950;font-stretch:ultra-condensed;font-size:61.42px;fill:white;stroke:black;stroke-width:1px;">M<tspan x="556.438px 567.8px 584.814px 590.71px 611.716px 628.361px " y="219px 219px 219px 219px 219px 219px ">IT DEN</tspan></text>
        <text x="655.14px" y="219px" style="font-family:'GoodPro-CompUltra', 'Good Pro', sans-serif;font-weight:950;font-stretch:ultra-condensed;font-size:61.42px;fill:rgb(2,126,101);fill-opacity:0.43;">W<tspan x="686.464px 707.347px 725.405px 744.077px 765.267px 783.324px 800.645px 812.008px 830.679px 851.317px " y="219px 219px 219px 219px 219px 219px 219px 219px 219px 219px ">ASCHSTICKS</tspan></text>
        <text x="874.964px" y="219px" style="font-family:'GoodPro-CompUltra', 'Good Pro', sans-serif;font-weight:950;font-stretch:ultra-condensed;font-size:61.42px;fill:white;stroke:black;stroke-width:1px;">V<tspan x="895.171px 915.869px " y="219px 219px ">ON</tspan></text>
        <text x="948.238px" y="219px" style="font-family:'GoodPro-CompUltra', 'Good Pro', sans-serif;font-weight:950;font-stretch:ultra-condensed;font-size:61.42px;fill:rgb(155,1,1);stroke:rgb(155,1,2);stroke-width:1px;">F<tspan x="964.944px 976.307px 994.365px 1015.56px 1032.2px 1052.47px 1080.6px 1101.48px 1122.37px 1130.35px 1148.1px 1154px 1170.7px 1190.97px 1202.33px 1218.98px 1240.17px " y="219px 219px 219px 219px 219px 219px 219px 219px 219px 219px 219px 219px 219px 219px 219px 219px 219px ">ISHERMAN&apos;S FRIEND</tspan></text>
        <rect x="947.931" y="221.702" width="312.937" height="5.466" style="fill:rgb(155,1,1);"/>
    </g>
</svg>
